<svg width="30" height="31" viewBox="0 0 30 31" fill="none" xmlns="http://www.w3.org/2000/svg">
<path opacity="0.8" d="M28.5001 25.0001H25.5001V20.5001C25.5001 20.1022 25.3421 19.7207 25.0608 19.4394C24.7795 19.1581 24.3979 19.0001 24.0001 19.0001H16.5001V14.9351L18.1951 15.8201C18.4423 15.9494 18.7207 16.0072 18.9989 15.987C19.2771 15.9668 19.5442 15.8695 19.7702 15.7059C19.9961 15.5422 20.172 15.3189 20.2779 15.0608C20.3839 14.8027 20.4158 14.5203 20.3701 14.2451L19.7701 10.6901L22.3501 8.15506C22.5455 7.96424 22.6851 7.72368 22.7539 7.45933C22.8226 7.19499 22.8178 6.9169 22.7401 6.65506C22.6532 6.38847 22.4933 6.15159 22.2785 5.9713C22.0637 5.79101 21.8027 5.67452 21.5251 5.63506L18.0001 5.08006L16.3501 1.84006C16.2273 1.58645 16.0355 1.37257 15.7968 1.22292C15.558 1.07327 15.2819 0.993896 15.0001 0.993896C14.7183 0.993896 14.4423 1.07327 14.2035 1.22292C13.9647 1.37257 13.773 1.58645 13.6501 1.84006L12.0001 5.08006L8.41512 5.60506C8.13751 5.64452 7.87651 5.76101 7.66175 5.9413C7.44699 6.12159 7.28706 6.35847 7.20012 6.62506C7.1224 6.8869 7.11765 7.16499 7.18638 7.42933C7.25511 7.69368 7.39471 7.93424 7.59012 8.12506L10.2301 10.6901L9.63012 14.2451C9.5844 14.5203 9.61632 14.8027 9.7223 15.0608C9.82828 15.3189 10.0041 15.5422 10.2301 15.7059C10.456 15.8695 10.7231 15.9668 11.0013 15.987C11.2796 16.0072 11.5579 15.9494 11.8051 15.8201L13.5001 14.9351V19.0001H6.00012C5.6023 19.0001 5.22077 19.1581 4.93946 19.4394C4.65816 19.7207 4.50012 20.1022 4.50012 20.5001V25.0001H1.50012C1.1023 25.0001 0.720766 25.1581 0.439462 25.4394C0.158157 25.7207 0.00012207 26.1022 0.00012207 26.5001V29.5001C0.00012207 29.8979 0.158157 30.2794 0.439462 30.5607C0.720766 30.842 1.1023 31.0001 1.50012 31.0001C1.89795 31.0001 2.27948 30.842 2.56078 30.5607C2.84209 30.2794 3.00012 29.8979 3.00012 29.5001V28.0001H9.00012V29.5001C9.00012 29.8979 9.15816 30.2794 9.43946 30.5607C9.72077 30.842 10.1023 31.0001 10.5001 31.0001C10.8979 31.0001 11.2795 30.842 11.5608 30.5607C11.8421 30.2794 12.0001 29.8979 12.0001 29.5001V26.5001C12.0001 26.1022 11.8421 25.7207 11.5608 25.4394C11.2795 25.1581 10.8979 25.0001 10.5001 25.0001H7.50012V22.0001H22.5001V25.0001H19.5001C19.1023 25.0001 18.7208 25.1581 18.4395 25.4394C18.1582 25.7207 18.0001 26.1022 18.0001 26.5001V29.5001C18.0001 29.8979 18.1582 30.2794 18.4395 30.5607C18.7208 30.842 19.1023 31.0001 19.5001 31.0001C19.8979 31.0001 20.2795 30.842 20.5608 30.5607C20.8421 30.2794 21.0001 29.8979 21.0001 29.5001V28.0001H27.0001V29.5001C27.0001 29.8979 27.1582 30.2794 27.4395 30.5607C27.7208 30.842 28.1023 31.0001 28.5001 31.0001C28.8979 31.0001 29.2795 30.842 29.5608 30.5607C29.8421 30.2794 30.0001 29.8979 30.0001 29.5001V26.5001C30.0001 26.1022 29.8421 25.7207 29.5608 25.4394C29.2795 25.1581 28.8979 25.0001 28.5001 25.0001ZM15.0001 10.9451C14.7539 10.9463 14.5118 11.0081 14.2951 11.1251L13.0951 11.7551L13.3201 10.4051C13.3595 10.1663 13.3405 9.9215 13.2647 9.69164C13.189 9.46179 13.0587 9.25367 12.8851 9.08506L11.9101 8.12506L13.2601 7.93006C13.5016 7.89779 13.7317 7.80717 13.9303 7.66604C14.1289 7.52491 14.2902 7.33751 14.4001 7.12006L15.0001 5.89006L15.6001 7.12006C15.7101 7.33751 15.8713 7.52491 16.07 7.66604C16.2686 7.80717 16.4986 7.89779 16.7401 7.93006L18.0901 8.12506L17.1151 9.08506C16.9415 9.25367 16.8113 9.46179 16.7355 9.69164C16.6598 9.9215 16.6408 10.1663 16.6801 10.4051L16.9051 11.7551L15.7051 11.1251C15.4885 11.0081 15.2463 10.9463 15.0001 10.9451Z" fill="#101130"/>
</svg>
