<svg width="32" height="32" viewBox="0 0 32 32" fill="none" xmlns="http://www.w3.org/2000/svg">
<path opacity="0.8" d="M29.7551 1.09006C28.6799 0.90486 27.5911 0.809531 26.5001 0.80506C22.7777 0.802009 19.1328 1.86942 16.0001 3.88006C12.8593 1.89582 9.21509 0.854606 5.50011 0.88006C4.40908 0.884531 3.32032 0.97986 2.24511 1.16506C1.89292 1.22578 1.57399 1.41025 1.34573 1.68525C1.11748 1.96025 0.994919 2.30771 1.00011 2.66506V20.6651C0.996902 20.8855 1.0423 21.1039 1.13309 21.3047C1.22387 21.5056 1.35781 21.684 1.52537 21.8272C1.69293 21.9704 1.89 22.0749 2.10255 22.1333C2.3151 22.1917 2.5379 22.2026 2.75511 22.1651C4.90464 21.7929 7.10692 21.8546 9.23221 22.3467C11.3575 22.8387 13.3629 23.7511 15.1301 25.0301L15.3101 25.1351H15.4751C15.6415 25.2044 15.8199 25.2401 16.0001 25.2401C16.1803 25.2401 16.3588 25.2044 16.5251 25.1351H16.6901L16.8701 25.0301C18.6251 23.7225 20.6246 22.7806 22.7503 22.2601C24.876 21.7396 27.0846 21.6512 29.2451 22.0001C29.4623 22.0376 29.6851 22.0267 29.8977 21.9683C30.1102 21.9099 30.3073 21.8054 30.4749 21.6622C30.6424 21.519 30.7764 21.3406 30.8671 21.1397C30.9579 20.9389 31.0033 20.7205 31.0001 20.5001V2.50006C30.9845 2.15829 30.8525 1.83213 30.6261 1.57567C30.3996 1.31921 30.0923 1.14787 29.7551 1.09006ZM14.5001 21.0251C11.7249 19.5651 8.63589 18.8031 5.50011 18.8051C5.00511 18.8051 4.51011 18.8051 4.00011 18.8051V3.80506C4.4997 3.77627 5.00053 3.77627 5.50011 3.80506C8.70019 3.80152 11.8304 4.7406 14.5001 6.50506V21.0251ZM28.0001 18.8651C27.4901 18.8651 26.9951 18.8651 26.5001 18.8651C23.3643 18.8631 20.2753 19.6251 17.5001 21.0851V6.50506C20.1698 4.7406 23.3 3.80152 26.5001 3.80506C26.9997 3.77627 27.5005 3.77627 28.0001 3.80506V18.8651ZM29.7551 25.0901C28.6799 24.9049 27.5911 24.8095 26.5001 24.8051C22.7777 24.802 19.1328 25.8694 16.0001 27.8801C12.8674 25.8694 9.22257 24.802 5.50011 24.8051C4.40908 24.8095 3.32032 24.9049 2.24511 25.0901C2.04986 25.121 1.86265 25.1903 1.69426 25.2939C1.52587 25.3975 1.37962 25.5334 1.26391 25.6937C1.14821 25.854 1.06534 26.0356 1.02007 26.228C0.974797 26.4205 0.968015 26.62 1.00011 26.8151C1.07634 27.2046 1.30385 27.548 1.6328 27.7701C1.96175 27.9922 2.36532 28.0749 2.75511 28.0001C4.90464 27.6279 7.10692 27.6896 9.23221 28.1817C11.3575 28.6737 13.3629 29.5861 15.1301 30.8651C15.3842 31.0459 15.6883 31.1431 16.0001 31.1431C16.312 31.1431 16.6161 31.0459 16.8701 30.8651C18.6374 29.5861 20.6427 28.6737 22.768 28.1817C24.8933 27.6896 27.0956 27.6279 29.2451 28.0001C29.6349 28.0749 30.0385 27.9922 30.3674 27.7701C30.6964 27.548 30.9239 27.2046 31.0001 26.8151C31.0322 26.62 31.0254 26.4205 30.9802 26.228C30.9349 26.0356 30.852 25.854 30.7363 25.6937C30.6206 25.5334 30.4744 25.3975 30.306 25.2939C30.1376 25.1903 29.9504 25.121 29.7551 25.0901Z" fill="#101130"/>
</svg>
