<svg width="135" height="40" viewBox="0 0 135 40" fill="none" xmlns="http://www.w3.org/2000/svg">
<rect x="0.5" y="0.5" width="134" height="39" rx="6.5" fill="white"/>
<path d="M92.5259 19.2009V21.4919H91.0899V22.9943H92.5259V28.0993C92.5259 29.8425 93.3145 30.5397 95.2984 30.5397C95.647 30.5397 95.9791 30.4982 96.2696 30.4484V28.9626C96.0206 28.9875 95.8628 29.0041 95.5889 29.0041C94.7007 29.0041 94.3106 28.589 94.3106 27.6428V22.9943H96.2696V21.4919H94.3106V19.2009H92.5259Z" fill="#606176"/>
<path d="M101.323 30.6642C103.963 30.6642 105.582 28.8962 105.582 25.966C105.582 23.0524 103.955 21.2761 101.323 21.2761C98.6838 21.2761 97.0568 23.0524 97.0568 25.966C97.0568 28.8962 98.6755 30.6642 101.323 30.6642ZM101.323 29.0788C99.7712 29.0788 98.8996 27.9416 98.8996 25.966C98.8996 24.007 99.7712 22.8615 101.323 22.8615C102.867 22.8615 103.747 24.007 103.747 25.966C103.747 27.9333 102.867 29.0788 101.323 29.0788Z" fill="#606176"/>
<path d="M106.967 30.4899H108.751V25.1525C108.751 23.8825 109.706 23.0275 111.059 23.0275C111.374 23.0275 111.906 23.0856 112.055 23.1354V21.3757C111.864 21.3259 111.524 21.301 111.258 21.301C110.079 21.301 109.075 21.9484 108.818 22.8366H108.685V21.4504H106.967V30.4899Z" fill="#606176"/>
<path d="M116.486 22.7951C117.806 22.7951 118.669 23.7165 118.711 25.1359H114.145C114.245 23.7248 115.166 22.7951 116.486 22.7951ZM118.703 28.0495C118.371 28.7551 117.632 29.1452 116.553 29.1452C115.125 29.1452 114.204 28.1408 114.145 26.5554V26.4557H120.529V25.8332C120.529 22.9943 119.01 21.2761 116.495 21.2761C113.946 21.2761 112.328 23.1105 112.328 25.9992C112.328 28.8879 113.913 30.6642 116.503 30.6642C118.57 30.6642 120.014 29.6681 120.421 28.0495H118.703Z" fill="#606176"/>
<path d="M80.8223 27.1518C80.96 29.3715 82.8098 30.791 85.5629 30.791C88.5053 30.791 90.3464 29.3026 90.3464 26.9281C90.3464 25.0611 89.2968 24.0287 86.7502 23.435L85.3822 23.0995C83.7647 22.7209 83.1109 22.2133 83.1109 21.3272C83.1109 20.2087 84.1261 19.4774 85.6489 19.4774C87.0943 19.4774 88.0923 20.1915 88.273 21.3358H90.1486C90.0367 19.2451 88.1956 17.7739 85.6747 17.7739C82.9646 17.7739 81.1579 19.2451 81.1579 21.4562C81.1579 23.2802 82.1817 24.3642 84.4272 24.889L86.0275 25.2762C87.6707 25.6634 88.3934 26.2312 88.3934 27.1776C88.3934 28.2788 87.2578 29.0789 85.7091 29.0789C84.0487 29.0789 82.8958 28.3304 82.7323 27.1518H80.8223Z" fill="#606176"/>
<path d="M62.335 21.301C61.1065 21.301 60.044 21.9152 59.4961 22.9445H59.3633V21.4504H57.6451V33.4948H59.4297V29.1203H59.5708C60.044 30.0749 61.065 30.6393 62.3516 30.6393C64.6343 30.6393 66.087 28.8381 66.087 25.966C66.087 23.0939 64.6343 21.301 62.335 21.301ZM61.8287 29.0373C60.3345 29.0373 59.3965 27.8586 59.3965 25.9743C59.3965 24.0817 60.3345 22.903 61.837 22.903C63.3477 22.903 64.2525 24.0568 64.2525 25.966C64.2525 27.8835 63.3477 29.0373 61.8287 29.0373Z" fill="#606176"/>
<path d="M72.3318 21.301C71.1033 21.301 70.0408 21.9152 69.4929 22.9445H69.3601V21.4504H67.6419V33.4948H69.4265V29.1203H69.5676C70.0408 30.0749 71.0618 30.6393 72.3484 30.6393C74.6311 30.6393 76.0838 28.8381 76.0838 25.966C76.0838 23.0939 74.6311 21.301 72.3318 21.301ZM71.8255 29.0373C70.3313 29.0373 69.3933 27.8586 69.3933 25.9743C69.3933 24.0817 70.3313 22.903 71.8338 22.903C73.3445 22.903 74.2493 24.0568 74.2493 25.966C74.2493 27.8835 73.3445 29.0373 71.8255 29.0373Z" fill="#606176"/>
<path d="M54.4431 30.4899H56.4907L52.0083 18.075H49.9348L45.4524 30.4899H47.4312L48.5755 27.1948H53.3074L54.4431 30.4899ZM50.8726 20.3292H51.0189L52.817 25.5773H49.0659L50.8726 20.3292Z" fill="#606176"/>
<path d="M46.6511 8.71094V14.7H48.8135C50.5981 14.7 51.6316 13.6001 51.6316 11.6868C51.6316 9.80249 50.5898 8.71094 48.8135 8.71094H46.6511ZM47.5808 9.55762H48.7097C49.9507 9.55762 50.6853 10.3462 50.6853 11.6992C50.6853 13.073 49.9631 13.8533 48.7097 13.8533H47.5808V9.55762Z" fill="#606176"/>
<path d="M54.7967 14.7871C56.1165 14.7871 56.9258 13.9031 56.9258 12.438C56.9258 10.9812 56.1124 10.093 54.7967 10.093C53.4769 10.093 52.6634 10.9812 52.6634 12.438C52.6634 13.9031 53.4727 14.7871 54.7967 14.7871ZM54.7967 13.9944C54.0206 13.9944 53.5848 13.4258 53.5848 12.438C53.5848 11.4585 54.0206 10.8857 54.7967 10.8857C55.5687 10.8857 56.0086 11.4585 56.0086 12.438C56.0086 13.4216 55.5687 13.9944 54.7967 13.9944Z" fill="#606176"/>
<path d="M63.818 10.1802H62.9256L62.1205 13.6292H62.0499L61.1202 10.1802H60.2652L59.3355 13.6292H59.2691L58.4598 10.1802H57.555L58.8001 14.7H59.7174L60.6471 11.3713H60.7176L61.6515 14.7H62.577L63.818 10.1802Z" fill="#606176"/>
<path d="M64.8456 14.7H65.7379V12.0562C65.7379 11.3506 66.1571 10.9106 66.817 10.9106C67.477 10.9106 67.7924 11.2717 67.7924 11.998V14.7H68.6847V11.7739C68.6847 10.699 68.1286 10.093 67.12 10.093C66.4394 10.093 65.9911 10.396 65.7711 10.8982H65.7047V10.1802H64.8456V14.7Z" fill="#606176"/>
<path d="M70.09 14.7H70.9824V8.41626H70.09V14.7Z" fill="#606176"/>
<path d="M74.3384 14.7871C75.6582 14.7871 76.4675 13.9031 76.4675 12.438C76.4675 10.9812 75.6541 10.093 74.3384 10.093C73.0186 10.093 72.2051 10.9812 72.2051 12.438C72.2051 13.9031 73.0144 14.7871 74.3384 14.7871ZM74.3384 13.9944C73.5623 13.9944 73.1265 13.4258 73.1265 12.438C73.1265 11.4585 73.5623 10.8857 74.3384 10.8857C75.1104 10.8857 75.5503 11.4585 75.5503 12.438C75.5503 13.4216 75.1104 13.9944 74.3384 13.9944Z" fill="#606176"/>
<path d="M79.1263 14.0234C78.6407 14.0234 78.2879 13.7869 78.2879 13.3801C78.2879 12.9817 78.5701 12.77 79.1927 12.7285L80.2967 12.658V13.0356C80.2967 13.5959 79.7986 14.0234 79.1263 14.0234ZM78.898 14.7747C79.4915 14.7747 79.9854 14.5173 80.2552 14.0649H80.3257V14.7H81.1849V11.6121C81.1849 10.6575 80.5457 10.093 79.4126 10.093C78.3875 10.093 77.657 10.5911 77.5657 11.3672H78.429C78.5286 11.0476 78.8731 10.865 79.3711 10.865C79.9812 10.865 80.2967 11.1348 80.2967 11.6121V12.0022L79.0723 12.0728C77.9974 12.1392 77.3914 12.6082 77.3914 13.4216C77.3914 14.2476 78.0264 14.7747 78.898 14.7747Z" fill="#606176"/>
<path d="M84.213 14.7747C84.8355 14.7747 85.3626 14.48 85.6324 13.9861H85.703V14.7H86.558V8.41626H85.6656V10.8982H85.5992C85.3543 10.4001 84.8314 10.1055 84.213 10.1055C83.0716 10.1055 82.337 11.0103 82.337 12.438C82.337 13.8699 83.0633 14.7747 84.213 14.7747ZM84.4662 10.9065C85.2132 10.9065 85.6822 11.5 85.6822 12.4421C85.6822 13.3884 85.2174 13.9736 84.4662 13.9736C83.7108 13.9736 83.2584 13.3967 83.2584 12.438C83.2584 11.4875 83.7149 10.9065 84.4662 10.9065Z" fill="#606176"/>
<path d="M92.3444 14.7871C93.6643 14.7871 94.4736 13.9031 94.4736 12.438C94.4736 10.9812 93.6601 10.093 92.3444 10.093C91.0246 10.093 90.2111 10.9812 90.2111 12.438C90.2111 13.9031 91.0205 14.7871 92.3444 14.7871ZM92.3444 13.9944C91.5683 13.9944 91.1325 13.4258 91.1325 12.438C91.1325 11.4585 91.5683 10.8857 92.3444 10.8857C93.1164 10.8857 93.5563 11.4585 93.5563 12.438C93.5563 13.4216 93.1164 13.9944 92.3444 13.9944Z" fill="#606176"/>
<path d="M95.6548 14.7H96.5471V12.0562C96.5471 11.3506 96.9663 10.9106 97.6262 10.9106C98.2861 10.9106 98.6016 11.2717 98.6016 11.998V14.7H99.4939V11.7739C99.4939 10.699 98.9377 10.093 97.9292 10.093C97.2485 10.093 96.8003 10.396 96.5803 10.8982H96.5139V10.1802H95.6548V14.7Z" fill="#606176"/>
<path d="M103.604 9.05542V10.2009H102.886V10.9521H103.604V13.5046C103.604 14.3762 103.998 14.7249 104.99 14.7249C105.164 14.7249 105.33 14.7041 105.475 14.6792V13.9363C105.351 13.9487 105.272 13.957 105.135 13.957C104.691 13.957 104.496 13.7495 104.496 13.2764V10.9521H105.475V10.2009H104.496V9.05542H103.604Z" fill="#606176"/>
<path d="M106.673 14.7H107.566V12.0603C107.566 11.3755 107.972 10.9148 108.703 10.9148C109.334 10.9148 109.67 11.28 109.67 12.0022V14.7H110.562V11.7822C110.562 10.7073 109.969 10.0972 109.006 10.0972C108.325 10.0972 107.848 10.4001 107.628 10.9065H107.557V8.41626H106.673V14.7Z" fill="#606176"/>
<path d="M113.781 10.8525C114.441 10.8525 114.873 11.3132 114.894 12.0229H112.611C112.661 11.3174 113.121 10.8525 113.781 10.8525ZM114.889 13.4797C114.723 13.8325 114.354 14.0276 113.814 14.0276C113.101 14.0276 112.64 13.5254 112.611 12.7327V12.6829H115.802V12.3716C115.802 10.9521 115.043 10.093 113.785 10.093C112.511 10.093 111.702 11.0103 111.702 12.4546C111.702 13.8989 112.495 14.7871 113.789 14.7871C114.823 14.7871 115.545 14.2891 115.748 13.4797H114.889Z" fill="#606176"/>
<path d="M30.769 20.3008C30.7907 18.6198 31.6934 17.0292 33.1256 16.1488C32.2221 14.8584 30.7088 14.0403 29.1344 13.9911C27.4552 13.8148 25.8272 14.9959 24.9715 14.9959C24.0992 14.9959 22.7817 14.0086 21.363 14.0378C19.5137 14.0975 17.7898 15.1489 16.8901 16.7656C14.9561 20.1141 16.3987 25.0351 18.2513 27.7417C19.1782 29.0671 20.2615 30.5475 21.6789 30.495C23.066 30.4375 23.584 29.6105 25.2583 29.6105C26.9171 29.6105 27.4031 30.495 28.8493 30.4616C30.3377 30.4375 31.2754 29.1304 32.1698 27.7925C32.8358 26.8481 33.3483 25.8044 33.6882 24.7C31.9391 23.9602 30.771 22.2 30.769 20.3008Z" fill="#606176"/>
<path d="M28.0373 12.2111C28.8489 11.2369 29.2487 9.98469 29.1518 8.72046C27.912 8.85068 26.7668 9.44324 25.9443 10.3801C25.14 11.2954 24.7214 12.5255 24.8006 13.7415C26.0408 13.7542 27.2601 13.1777 28.0373 12.2111Z" fill="#606176"/>
<rect x="0.5" y="0.5" width="134" height="39" rx="6.5" stroke="#606176"/>
</svg>
