<svg width="40" height="40" viewBox="0 0 40 40" fill="none" xmlns="http://www.w3.org/2000/svg">
<rect width="40" height="40" rx="16" fill="#3BB77E"/>
<path d="M12.368 26L11.516 26.852C11.2925 27.0768 11.167 27.381 11.167 27.698C11.167 28.015 11.2925 28.3192 11.516 28.544C11.7408 28.7675 12.045 28.893 12.362 28.893C12.679 28.893 12.9832 28.7675 13.208 28.544L14.06 27.692C14.2566 27.4624 14.3593 27.1671 14.3477 26.8651C14.336 26.5631 14.2108 26.2766 13.9971 26.0629C13.7834 25.8492 13.4969 25.724 13.1949 25.7123C12.8929 25.7007 12.5976 25.8034 12.368 26ZM11.6 20C11.6 19.6817 11.4736 19.3765 11.2485 19.1515C11.0235 18.9264 10.7183 18.8 10.4 18.8H9.2C8.88174 18.8 8.57652 18.9264 8.35147 19.1515C8.12643 19.3765 8 19.6817 8 20C8 20.3183 8.12643 20.6235 8.35147 20.8485C8.57652 21.0736 8.88174 21.2 9.2 21.2H10.4C10.7183 21.2 11.0235 21.0736 11.2485 20.8485C11.4736 20.6235 11.6 20.3183 11.6 20ZM20 11.6C20.3183 11.6 20.6235 11.4736 20.8485 11.2485C21.0736 11.0235 21.2 10.7183 21.2 10.4V9.2C21.2 8.88174 21.0736 8.57652 20.8485 8.35147C20.6235 8.12643 20.3183 8 20 8C19.6817 8 19.3765 8.12643 19.1515 8.35147C18.9264 8.57652 18.8 8.88174 18.8 9.2V10.4C18.8 10.7183 18.9264 11.0235 19.1515 11.2485C19.3765 11.4736 19.6817 11.6 20 11.6ZM12.368 14.06C12.5915 14.2817 12.8932 14.4067 13.208 14.408C13.3659 14.4089 13.5225 14.3786 13.6687 14.3189C13.8149 14.2592 13.9479 14.1712 14.06 14.06C14.2835 13.8352 14.409 13.531 14.409 13.214C14.409 12.897 14.2835 12.5928 14.06 12.368L13.208 11.516C12.9784 11.3194 12.6831 11.2167 12.3811 11.2283C12.0791 11.24 11.7926 11.3652 11.5789 11.5789C11.3652 11.7926 11.24 12.0791 11.2283 12.3811C11.2167 12.6831 11.3194 12.9784 11.516 13.208L12.368 14.06ZM26.768 14.408C27.0828 14.4067 27.3845 14.2817 27.608 14.06L28.46 13.208C28.5856 13.1004 28.6876 12.968 28.7597 12.8192C28.8317 12.6703 28.8722 12.5081 28.8786 12.3429C28.8849 12.1776 28.8571 12.0128 28.7968 11.8588C28.7364 11.7048 28.6449 11.565 28.528 11.448C28.411 11.3311 28.2712 11.2396 28.1172 11.1792C27.9632 11.1189 27.7984 11.0911 27.6331 11.0974C27.4679 11.1038 27.3057 11.1443 27.1568 11.2163C27.008 11.2884 26.8756 11.3904 26.768 11.516L26 12.368C25.7765 12.5928 25.6511 12.897 25.6511 13.214C25.6511 13.531 25.7765 13.8352 26 14.06C26.2116 14.2704 26.4939 14.3945 26.792 14.408H26.768ZM30.8 18.8H29.6C29.2817 18.8 28.9765 18.9264 28.7515 19.1515C28.5264 19.3765 28.4 19.6817 28.4 20C28.4 20.3183 28.5264 20.6235 28.7515 20.8485C28.9765 21.0736 29.2817 21.2 29.6 21.2H30.8C31.1183 21.2 31.4235 21.0736 31.6485 20.8485C31.8736 20.6235 32 20.3183 32 20C32 19.6817 31.8736 19.3765 31.6485 19.1515C31.4235 18.9264 31.1183 18.8 30.8 18.8ZM20 28.4C19.6817 28.4 19.3765 28.5264 19.1515 28.7515C18.9264 28.9765 18.8 29.2817 18.8 29.6V30.8C18.8 31.1183 18.9264 31.4235 19.1515 31.6485C19.3765 31.8736 19.6817 32 20 32C20.3183 32 20.6235 31.8736 20.8485 31.6485C21.0736 31.4235 21.2 31.1183 21.2 30.8V29.6C21.2 29.2817 21.0736 28.9765 20.8485 28.7515C20.6235 28.5264 20.3183 28.4 20 28.4ZM27.632 26C27.404 25.8732 27.1409 25.8241 26.8826 25.8602C26.6242 25.8964 26.3846 26.0157 26.2002 26.2002C26.0157 26.3846 25.8964 26.6242 25.8602 26.8826C25.8241 27.1409 25.8732 27.404 26 27.632L26.852 28.484C27.0768 28.7075 27.381 28.833 27.698 28.833C28.015 28.833 28.3192 28.7075 28.544 28.484C28.7675 28.2592 28.893 27.955 28.893 27.638C28.893 27.321 28.7675 27.0168 28.544 26.792L27.632 26ZM20 13.4C18.6946 13.4 17.4186 13.7871 16.3332 14.5123C15.2479 15.2375 14.4019 16.2683 13.9024 17.4743C13.4029 18.6803 13.2722 20.0073 13.5268 21.2876C13.7815 22.5679 14.4101 23.7439 15.3331 24.6669C16.2561 25.5899 17.4321 26.2185 18.7124 26.4732C19.9927 26.7278 21.3197 26.5971 22.5257 26.0976C23.7317 25.5981 24.7625 24.7521 25.4877 23.6668C26.2129 22.5814 26.6 21.3054 26.6 20C26.5968 18.2505 25.9005 16.5737 24.6634 15.3366C23.4263 14.0995 21.7495 13.4032 20 13.4ZM20 24.2C19.1693 24.2 18.3573 23.9537 17.6666 23.4922C16.9759 23.0307 16.4376 22.3747 16.1197 21.6073C15.8018 20.8398 15.7186 19.9953 15.8807 19.1806C16.0428 18.3659 16.4428 17.6175 17.0302 17.0302C17.6175 16.4428 18.3659 16.0428 19.1806 15.8807C19.9953 15.7186 20.8398 15.8018 21.6073 16.1197C22.3747 16.4376 23.0307 16.9759 23.4922 17.6666C23.9537 18.3573 24.2 19.1693 24.2 20C24.2 21.1139 23.7575 22.1822 22.9698 22.9698C22.1822 23.7575 21.1139 24.2 20 24.2Z" fill="#D2FFEA"/>
</svg>
