<svg width="24" height="15" viewBox="0 0 24 15" fill="none" xmlns="http://www.w3.org/2000/svg">
<path d="M1.26795 3.12009H21.8937C22.1976 3.12009 22.4891 2.99998 22.704 2.78619C22.9189 2.5724 23.0396 2.28243 23.0396 1.98009C23.0396 1.67774 22.9189 1.38778 22.704 1.17399C22.4891 0.960195 22.1976 0.840088 21.8937 0.840088H1.26795C0.964041 0.840088 0.672583 0.960195 0.45769 1.17399C0.242796 1.38778 0.12207 1.67774 0.12207 1.98009C0.12207 2.28243 0.242796 2.5724 0.45769 2.78619C0.672583 2.99998 0.964041 3.12009 1.26795 3.12009ZM21.8937 12.2401H1.26795C0.964041 12.2401 0.672583 12.3602 0.45769 12.574C0.242796 12.7878 0.12207 13.0777 0.12207 13.3801C0.12207 13.6824 0.242796 13.9724 0.45769 14.1862C0.672583 14.4 0.964041 14.5201 1.26795 14.5201H21.8937C22.1976 14.5201 22.4891 14.4 22.704 14.1862C22.9189 13.9724 23.0396 13.6824 23.0396 13.3801C23.0396 13.0777 22.9189 12.7878 22.704 12.574C22.4891 12.3602 22.1976 12.2401 21.8937 12.2401ZM21.8937 6.54009H1.26795C0.964041 6.54009 0.672583 6.66019 0.45769 6.87399C0.242796 7.08778 0.12207 7.37774 0.12207 7.68009C0.12207 7.98243 0.242796 8.2724 0.45769 8.48619C0.672583 8.69998 0.964041 8.82009 1.26795 8.82009H21.8937C22.1976 8.82009 22.4891 8.69998 22.704 8.48619C22.9189 8.2724 23.0396 7.98243 23.0396 7.68009C23.0396 7.37774 22.9189 7.08778 22.704 6.87399C22.4891 6.66019 22.1976 6.54009 21.8937 6.54009Z" fill="#D2FFEA"/>
</svg>
