<svg width="117" height="44" viewBox="0 0 117 44" fill="none" xmlns="http://www.w3.org/2000/svg">
<rect y="3" width="38.1959" height="38" rx="19" fill="#3BB77E"/>
<path d="M15.4835 12.536C15.8008 12.3493 16.2768 12.172 16.9115 12.004C17.5648 11.836 18.2182 11.752 18.8715 11.752C19.8048 11.752 20.6262 11.892 21.3355 12.172C22.0635 12.4333 22.5302 12.8533 22.7355 13.432C23.0715 14.4027 23.4355 15.532 23.8275 16.82C24.2195 18.108 24.6115 19.4427 25.0035 20.824C25.3955 22.1867 25.7782 23.54 26.1515 24.884C26.5248 26.2093 26.8515 27.3853 27.1315 28.412C26.9075 28.6733 26.5715 28.8787 26.1235 29.028C25.6755 29.196 25.1435 29.28 24.5275 29.28C24.0795 29.28 23.6968 29.2427 23.3795 29.168C23.0808 29.0933 22.8288 28.9813 22.6235 28.832C22.4368 28.6827 22.2782 28.4867 22.1475 28.244C22.0355 28.0013 21.9328 27.7213 21.8395 27.404L21.3355 25.472H16.2675C16.1182 26.032 15.9688 26.6107 15.8195 27.208C15.6702 27.8053 15.5208 28.384 15.3715 28.944C15.1102 29.0373 14.8302 29.112 14.5315 29.168C14.2515 29.2427 13.9062 29.28 13.4955 29.28C12.5435 29.28 11.8342 29.1213 11.3675 28.804C10.9195 28.468 10.6955 28.0107 10.6955 27.432C10.6955 27.1707 10.7328 26.9093 10.8075 26.648C10.8822 26.3867 10.9662 26.0787 11.0595 25.724C11.1902 25.22 11.3675 24.5947 11.5915 23.848C11.8342 23.1013 12.0955 22.2987 12.3755 21.44C12.6555 20.5627 12.9542 19.6667 13.2715 18.752C13.5888 17.8373 13.8875 16.9787 14.1675 16.176C14.4475 15.3547 14.6995 14.6267 14.9235 13.992C15.1662 13.3573 15.3528 12.872 15.4835 12.536ZM18.8435 16.148C18.5822 16.932 18.2835 17.8093 17.9475 18.78C17.6302 19.732 17.3408 20.7027 17.0795 21.692H20.5515C20.2902 20.684 20.0195 19.704 19.7395 18.752C19.4782 17.7813 19.2355 16.9133 19.0115 16.148H18.8435Z" fill="white"/>
<path d="M47.8777 16.888C48.1497 16.728 48.5577 16.576 49.1017 16.432C49.6617 16.288 50.2217 16.216 50.7817 16.216C51.5817 16.216 52.2857 16.336 52.8937 16.576C53.5177 16.8 53.9177 17.16 54.0937 17.656C54.3817 18.488 54.6937 19.456 55.0297 20.56C55.3657 21.664 55.7017 22.808 56.0377 23.992C56.3737 25.16 56.7017 26.32 57.0217 27.472C57.3417 28.608 57.6217 29.616 57.8617 30.496C57.6697 30.72 57.3817 30.896 56.9977 31.024C56.6137 31.168 56.1577 31.24 55.6297 31.24C55.2457 31.24 54.9177 31.208 54.6457 31.144C54.3897 31.08 54.1737 30.984 53.9977 30.856C53.8377 30.728 53.7017 30.56 53.5897 30.352C53.4937 30.144 53.4057 29.904 53.3257 29.632L52.8937 27.976H48.5497C48.4217 28.456 48.2937 28.952 48.1657 29.464C48.0377 29.976 47.9097 30.472 47.7817 30.952C47.5577 31.032 47.3177 31.096 47.0617 31.144C46.8217 31.208 46.5257 31.24 46.1737 31.24C45.3577 31.24 44.7497 31.104 44.3497 30.832C43.9657 30.544 43.7737 30.152 43.7737 29.656C43.7737 29.432 43.8057 29.208 43.8697 28.984C43.9337 28.76 44.0057 28.496 44.0857 28.192C44.1977 27.76 44.3497 27.224 44.5417 26.584C44.7497 25.944 44.9737 25.256 45.2137 24.52C45.4537 23.768 45.7097 23 45.9817 22.216C46.2537 21.432 46.5097 20.696 46.7497 20.008C46.9897 19.304 47.2057 18.68 47.3977 18.136C47.6057 17.592 47.7657 17.176 47.8777 16.888ZM50.7577 19.984C50.5337 20.656 50.2777 21.408 49.9897 22.24C49.7177 23.056 49.4697 23.888 49.2457 24.736H52.2217C51.9977 23.872 51.7657 23.032 51.5257 22.216C51.3017 21.384 51.0937 20.64 50.9017 19.984H50.7577ZM72.7646 30.496C72.5406 30.72 72.2126 30.888 71.7806 31C71.3646 31.128 70.8606 31.192 70.2686 31.192C69.6766 31.192 69.1166 31.104 68.5886 30.928C68.0606 30.752 67.6286 30.328 67.2926 29.656L64.9166 24.808C64.6766 24.312 64.4606 23.848 64.2686 23.416C64.0766 22.968 63.8686 22.456 63.6446 21.88L63.5006 21.904C63.5646 22.768 63.5966 23.648 63.5966 24.544C63.6126 25.44 63.6206 26.32 63.6206 27.184V30.904C63.4446 30.952 63.1726 31 62.8046 31.048C62.4526 31.096 62.1006 31.12 61.7486 31.12C61.3966 31.12 61.0846 31.096 60.8126 31.048C60.5406 31 60.3166 30.904 60.1406 30.76C59.9646 30.616 59.8286 30.424 59.7326 30.184C59.6366 29.928 59.5886 29.6 59.5886 29.2V17.2C59.8126 16.88 60.1566 16.64 60.6206 16.48C61.0846 16.32 61.5806 16.24 62.1086 16.24C62.7006 16.24 63.2606 16.336 63.7886 16.528C64.3326 16.704 64.7646 17.12 65.0846 17.776L67.4846 22.624C67.7246 23.12 67.9406 23.592 68.1326 24.04C68.3246 24.472 68.5326 24.976 68.7566 25.552L68.8766 25.528C68.8126 24.664 68.7726 23.8 68.7566 22.936C68.7406 22.072 68.7326 21.208 68.7326 20.344V16.456C68.9086 16.408 69.1726 16.36 69.5246 16.312C69.8926 16.264 70.2526 16.24 70.6046 16.24C71.3086 16.24 71.8446 16.368 72.2126 16.624C72.5806 16.864 72.7646 17.376 72.7646 18.16V30.496ZM74.9656 19.816C74.8536 19.64 74.7496 19.4 74.6536 19.096C74.5576 18.792 74.5096 18.472 74.5096 18.136C74.5096 17.512 74.6456 17.064 74.9176 16.792C75.2056 16.52 75.5736 16.384 76.0216 16.384H86.4856C86.5976 16.56 86.7016 16.8 86.7976 17.104C86.8936 17.408 86.9416 17.728 86.9416 18.064C86.9416 18.688 86.7976 19.136 86.5096 19.408C86.2376 19.68 85.8776 19.816 85.4296 19.816H82.7656V30.904C82.5896 30.952 82.3096 31 81.9256 31.048C81.5576 31.096 81.1896 31.12 80.8216 31.12C80.4536 31.12 80.1256 31.088 79.8376 31.024C79.5656 30.976 79.3336 30.88 79.1416 30.736C78.9496 30.592 78.8056 30.392 78.7096 30.136C78.6136 29.88 78.5656 29.544 78.5656 29.128V19.816H74.9656ZM101.742 30.904C101.566 30.952 101.286 31 100.902 31.048C100.534 31.096 100.166 31.12 99.7976 31.12C99.4296 31.12 99.1016 31.088 98.8136 31.024C98.5416 30.976 98.3096 30.88 98.1176 30.736C97.9256 30.592 97.7816 30.392 97.6856 30.136C97.5896 29.88 97.5416 29.544 97.5416 29.128V25.384H92.9336V30.904C92.7576 30.952 92.4776 31 92.0936 31.048C91.7256 31.096 91.3576 31.12 90.9896 31.12C90.6216 31.12 90.2936 31.088 90.0056 31.024C89.7336 30.976 89.5016 30.88 89.3096 30.736C89.1176 30.592 88.9736 30.392 88.8776 30.136C88.7816 29.88 88.7336 29.544 88.7336 29.128V16.456C88.9096 16.424 89.1896 16.384 89.5736 16.336C89.9576 16.272 90.3256 16.24 90.6776 16.24C91.0456 16.24 91.3656 16.272 91.6376 16.336C91.9256 16.384 92.1656 16.48 92.3576 16.624C92.5496 16.768 92.6936 16.968 92.7896 17.224C92.8856 17.48 92.9336 17.816 92.9336 18.232V22.072H97.5416V16.456C97.7176 16.424 97.9976 16.384 98.3816 16.336C98.7656 16.272 99.1336 16.24 99.4856 16.24C99.8536 16.24 100.174 16.272 100.446 16.336C100.734 16.384 100.974 16.48 101.166 16.624C101.358 16.768 101.502 16.968 101.598 17.224C101.694 17.48 101.742 17.816 101.742 18.232V30.904ZM104.619 18.688C104.619 18 104.819 17.456 105.219 17.056C105.619 16.656 106.163 16.456 106.851 16.456H114.771C114.883 16.632 114.979 16.864 115.059 17.152C115.155 17.44 115.203 17.744 115.203 18.064C115.203 18.672 115.067 19.104 114.795 19.36C114.539 19.616 114.195 19.744 113.763 19.744H108.699V21.976H114.099C114.211 22.152 114.307 22.384 114.387 22.672C114.483 22.944 114.531 23.24 114.531 23.56C114.531 24.168 114.403 24.6 114.147 24.856C113.891 25.112 113.547 25.24 113.115 25.24H108.699V27.76H114.867C114.979 27.936 115.075 28.168 115.155 28.456C115.251 28.744 115.299 29.048 115.299 29.368C115.299 29.976 115.163 30.416 114.891 30.688C114.635 30.944 114.291 31.072 113.859 31.072H106.851C106.163 31.072 105.619 30.872 105.219 30.472C104.819 30.072 104.619 29.528 104.619 28.84V18.688Z" fill="white"/>
</svg>
