<svg width="30" height="30" viewBox="0 0 30 30" fill="none" xmlns="http://www.w3.org/2000/svg">
<path d="M7.368 21L6.516 21.852C6.2925 22.0768 6.16705 22.381 6.16705 22.698C6.16705 23.015 6.2925 23.3192 6.516 23.544C6.74083 23.7675 7.04498 23.893 7.362 23.893C7.67902 23.893 7.98317 23.7675 8.208 23.544L9.06 22.692C9.25659 22.4624 9.35932 22.1671 9.34765 21.8651C9.33599 21.5631 9.21079 21.2766 8.99708 21.0629C8.78336 20.8492 8.49688 20.724 8.19486 20.7123C7.89285 20.7007 7.59756 20.8034 7.368 21V21ZM6.6 15C6.6 14.6817 6.47357 14.3765 6.24853 14.1515C6.02348 13.9264 5.71826 13.8 5.4 13.8H4.2C3.88174 13.8 3.57652 13.9264 3.35147 14.1515C3.12643 14.3765 3 14.6817 3 15C3 15.3183 3.12643 15.6235 3.35147 15.8485C3.57652 16.0736 3.88174 16.2 4.2 16.2H5.4C5.71826 16.2 6.02348 16.0736 6.24853 15.8485C6.47357 15.6235 6.6 15.3183 6.6 15ZM15 6.6C15.3183 6.6 15.6235 6.47357 15.8485 6.24853C16.0736 6.02348 16.2 5.71826 16.2 5.4V4.2C16.2 3.88174 16.0736 3.57652 15.8485 3.35147C15.6235 3.12643 15.3183 3 15 3C14.6817 3 14.3765 3.12643 14.1515 3.35147C13.9264 3.57652 13.8 3.88174 13.8 4.2V5.4C13.8 5.71826 13.9264 6.02348 14.1515 6.24853C14.3765 6.47357 14.6817 6.6 15 6.6ZM7.368 9.06C7.59151 9.28169 7.89319 9.40667 8.208 9.408C8.36593 9.40891 8.52248 9.37864 8.66869 9.31893C8.81489 9.25921 8.94787 9.17122 9.06 9.06C9.2835 8.83517 9.40895 8.53102 9.40895 8.214C9.40895 7.89698 9.2835 7.59283 9.06 7.368L8.208 6.516C7.97844 6.31941 7.68315 6.21668 7.38114 6.22835C7.07912 6.24001 6.79264 6.36521 6.57892 6.57892C6.36521 6.79264 6.24001 7.07912 6.22835 7.38114C6.21668 7.68315 6.31941 7.97844 6.516 8.208L7.368 9.06ZM21.768 9.408C22.0828 9.40667 22.3845 9.28169 22.608 9.06L23.46 8.208C23.5856 8.10042 23.6876 7.96804 23.7597 7.81916C23.8317 7.67029 23.8722 7.50813 23.8786 7.34286C23.8849 7.1776 23.8571 7.0128 23.7968 6.85881C23.7364 6.70482 23.6449 6.56497 23.528 6.44802C23.411 6.33107 23.2712 6.23956 23.1172 6.17924C22.9632 6.11891 22.7984 6.09106 22.6331 6.09744C22.4679 6.10383 22.3057 6.1443 22.1568 6.21633C22.008 6.28836 21.8756 6.39038 21.768 6.516L21 7.368C20.7765 7.59283 20.651 7.89698 20.651 8.214C20.651 8.53102 20.7765 8.83517 21 9.06C21.2116 9.27043 21.4939 9.3945 21.792 9.408H21.768ZM25.8 13.8H24.6C24.2817 13.8 23.9765 13.9264 23.7515 14.1515C23.5264 14.3765 23.4 14.6817 23.4 15C23.4 15.3183 23.5264 15.6235 23.7515 15.8485C23.9765 16.0736 24.2817 16.2 24.6 16.2H25.8C26.1183 16.2 26.4235 16.0736 26.6485 15.8485C26.8736 15.6235 27 15.3183 27 15C27 14.6817 26.8736 14.3765 26.6485 14.1515C26.4235 13.9264 26.1183 13.8 25.8 13.8ZM15 23.4C14.6817 23.4 14.3765 23.5264 14.1515 23.7515C13.9264 23.9765 13.8 24.2817 13.8 24.6V25.8C13.8 26.1183 13.9264 26.4235 14.1515 26.6485C14.3765 26.8736 14.6817 27 15 27C15.3183 27 15.6235 26.8736 15.8485 26.6485C16.0736 26.4235 16.2 26.1183 16.2 25.8V24.6C16.2 24.2817 16.0736 23.9765 15.8485 23.7515C15.6235 23.5264 15.3183 23.4 15 23.4ZM22.632 21C22.404 20.8732 22.1409 20.8241 21.8826 20.8602C21.6242 20.8964 21.3846 21.0157 21.2002 21.2002C21.0157 21.3846 20.8964 21.6242 20.8602 21.8826C20.8241 22.1409 20.8732 22.404 21 22.632L21.852 23.484C22.0768 23.7075 22.381 23.833 22.698 23.833C23.015 23.833 23.3192 23.7075 23.544 23.484C23.7675 23.2592 23.893 22.955 23.893 22.638C23.893 22.321 23.7675 22.0168 23.544 21.792L22.632 21ZM15 8.4C13.6946 8.4 12.4186 8.78708 11.3332 9.5123C10.2479 10.2375 9.40193 11.2683 8.9024 12.4743C8.40286 13.6803 8.27215 15.0073 8.52682 16.2876C8.78148 17.5679 9.41007 18.7439 10.3331 19.6669C11.2561 20.5899 12.4321 21.2185 13.7124 21.4732C14.9927 21.7278 16.3197 21.5971 17.5257 21.0976C18.7317 20.5981 19.7625 19.7521 20.4877 18.6668C21.2129 17.5814 21.6 16.3054 21.6 15C21.5968 13.2505 20.9005 11.5737 19.6634 10.3366C18.4263 9.09955 16.7495 8.40317 15 8.4ZM15 19.2C14.1693 19.2 13.3573 18.9537 12.6666 18.4922C11.9759 18.0307 11.4376 17.3747 11.1197 16.6073C10.8018 15.8398 10.7186 14.9953 10.8807 14.1806C11.0428 13.3659 11.4428 12.6175 12.0302 12.0302C12.6175 11.4428 13.3659 11.0428 14.1806 10.8807C14.9953 10.7186 15.8398 10.8018 16.6073 11.1197C17.3747 11.4376 18.0307 11.9759 18.4922 12.6666C18.9537 13.3573 19.2 14.1693 19.2 15C19.2 16.1139 18.7575 17.1822 17.9698 17.9698C17.1822 18.7575 16.1139 19.2 15 19.2V19.2Z" fill="#D2FFEA"/>
</svg>
