<svg width="79" height="15" viewBox="0 0 79 15" fill="none" xmlns="http://www.w3.org/2000/svg">
<path d="M6.64319 1.42372C7.03185 0.777901 7.96815 0.777901 8.35681 1.42372L9.75025 3.73914C9.88988 3.97115 10.1176 4.13662 10.3814 4.19772L13.0141 4.80745C13.7484 4.97752 14.0378 5.86799 13.5437 6.4372L11.7722 8.47794C11.5946 8.68243 11.5077 8.95017 11.5311 9.21994L11.7647 11.9122C11.8299 12.6631 11.0724 13.2135 10.3784 12.9194L7.89009 11.8653C7.64076 11.7596 7.35924 11.7596 7.10991 11.8653L4.62163 12.9194C3.92759 13.2135 3.17011 12.6631 3.23528 11.9122L3.46893 9.21994C3.49235 8.95017 3.40535 8.68243 3.22784 8.47794L1.45635 6.4372C0.962238 5.86799 1.25157 4.97752 1.98588 4.80745L4.61857 4.19772C4.88238 4.13662 5.11013 3.97115 5.24975 3.73914L6.64319 1.42372Z" fill="#FFB800"/>
<path d="M22.6432 1.42372C23.0319 0.777901 23.9681 0.777901 24.3568 1.42372L25.7502 3.73914C25.8899 3.97115 26.1176 4.13662 26.3814 4.19772L29.0141 4.80745C29.7484 4.97752 30.0378 5.86799 29.5437 6.4372L27.7722 8.47794C27.5946 8.68243 27.5077 8.95017 27.5311 9.21994L27.7647 11.9122C27.8299 12.6631 27.0724 13.2135 26.3784 12.9194L23.8901 11.8653C23.6408 11.7596 23.3592 11.7596 23.1099 11.8653L20.6216 12.9194C19.9276 13.2135 19.1701 12.6631 19.2353 11.9122L19.4689 9.21994C19.4923 8.95017 19.4054 8.68243 19.2278 8.47794L17.4563 6.4372C16.9622 5.86799 17.2516 4.97752 17.9859 4.80745L20.6186 4.19772C20.8824 4.13662 21.1101 3.97115 21.2498 3.73914L22.6432 1.42372Z" fill="#FFB800"/>
<path d="M38.6432 1.42372C39.0319 0.777901 39.9681 0.777901 40.3568 1.42372L41.7502 3.73914C41.8899 3.97115 42.1176 4.13662 42.3814 4.19772L45.0141 4.80745C45.7484 4.97752 46.0378 5.86799 45.5437 6.4372L43.7722 8.47794C43.5946 8.68243 43.5077 8.95017 43.5311 9.21994L43.7647 11.9122C43.8299 12.6631 43.0724 13.2135 42.3784 12.9194L39.8901 11.8653C39.6408 11.7596 39.3592 11.7596 39.1099 11.8653L36.6216 12.9194C35.9276 13.2135 35.1701 12.6631 35.2353 11.9122L35.4689 9.21994C35.4923 8.95017 35.4054 8.68243 35.2278 8.47794L33.4563 6.4372C32.9622 5.86799 33.2516 4.97752 33.9859 4.80745L36.6186 4.19772C36.8824 4.13662 37.1101 3.97115 37.2498 3.73914L38.6432 1.42372Z" fill="#FFB800"/>
<path d="M54.6432 1.42372C55.0319 0.777901 55.9681 0.777901 56.3568 1.42372L57.7502 3.73914C57.8899 3.97115 58.1176 4.13662 58.3814 4.19772L61.0141 4.80745C61.7484 4.97752 62.0378 5.86799 61.5437 6.4372L59.7722 8.47794C59.5946 8.68243 59.5077 8.95017 59.5311 9.21994L59.7647 11.9122C59.8299 12.6631 59.0724 13.2135 58.3784 12.9194L55.8901 11.8653C55.6408 11.7596 55.3592 11.7596 55.1099 11.8653L52.6216 12.9194C51.9276 13.2135 51.1701 12.6631 51.2353 11.9122L51.4689 9.21994C51.4923 8.95017 51.4054 8.68243 51.2278 8.47794L49.4563 6.4372C48.9622 5.86799 49.2516 4.97752 49.9859 4.80745L52.6186 4.19772C52.8824 4.13662 53.1101 3.97115 53.2498 3.73914L54.6432 1.42372Z" fill="#FFB800"/>
<path d="M70.6432 1.42372C71.0319 0.777901 71.9681 0.777901 72.3568 1.42372L73.7502 3.73914C73.8899 3.97115 74.1176 4.13662 74.3814 4.19772L77.0141 4.80745C77.7484 4.97752 78.0378 5.86799 77.5437 6.4372L75.7722 8.47794C75.5946 8.68243 75.5077 8.95017 75.5311 9.21994L75.7647 11.9122C75.8299 12.6631 75.0724 13.2135 74.3784 12.9194L71.8901 11.8653C71.6408 11.7596 71.3592 11.7596 71.1099 11.8653L68.6216 12.9194C67.9276 13.2135 67.1701 12.6631 67.2353 11.9122L67.4689 9.21994C67.4923 8.95017 67.4054 8.68243 67.2278 8.47794L65.4563 6.4372C64.9622 5.86799 65.2516 4.97752 65.9859 4.80745L68.6186 4.19772C68.8824 4.13662 69.1101 3.97115 69.2498 3.73914L70.6432 1.42372Z" fill="#FFB800"/>
</svg>
