<svg width="36" height="36" viewBox="0 0 36 36" fill="none" xmlns="http://www.w3.org/2000/svg">
<path d="M8.46 25.5L7.395 26.565C7.11562 26.846 6.95881 27.2262 6.95881 27.6225C6.95881 28.0188 7.11562 28.399 7.395 28.68C7.67604 28.9594 8.05622 29.1162 8.4525 29.1162C8.84878 29.1162 9.22896 28.9594 9.51 28.68L10.575 27.615C10.8207 27.328 10.9491 26.9589 10.9346 26.5814C10.92 26.2039 10.7635 25.8458 10.4963 25.5787C10.2292 25.3115 9.87109 25.155 9.49358 25.1404C9.11607 25.1259 8.74695 25.2543 8.46 25.5ZM7.5 18C7.5 17.6022 7.34196 17.2206 7.06066 16.9393C6.77936 16.658 6.39782 16.5 6 16.5H4.5C4.10218 16.5 3.72064 16.658 3.43934 16.9393C3.15804 17.2206 3 17.6022 3 18C3 18.3978 3.15804 18.7794 3.43934 19.0607C3.72064 19.342 4.10218 19.5 4.5 19.5H6C6.39782 19.5 6.77936 19.342 7.06066 19.0607C7.34196 18.7794 7.5 18.3978 7.5 18ZM18 7.5C18.3978 7.5 18.7794 7.34196 19.0607 7.06066C19.342 6.77936 19.5 6.39782 19.5 6V4.5C19.5 4.10218 19.342 3.72064 19.0607 3.43934C18.7794 3.15804 18.3978 3 18 3C17.6022 3 17.2206 3.15804 16.9393 3.43934C16.658 3.72064 16.5 4.10218 16.5 4.5V6C16.5 6.39782 16.658 6.77936 16.9393 7.06066C17.2206 7.34196 17.6022 7.5 18 7.5ZM8.46 10.575C8.73939 10.8521 9.11649 11.0083 9.51 11.01C9.70741 11.0111 9.9031 10.9733 10.0859 10.8987C10.2686 10.824 10.4348 10.714 10.575 10.575C10.8544 10.294 11.0112 9.91378 11.0112 9.5175C11.0112 9.12122 10.8544 8.74104 10.575 8.46L9.51 7.395C9.22305 7.14926 8.85393 7.02085 8.47642 7.03543C8.09891 7.05001 7.7408 7.20651 7.47365 7.47365C7.20651 7.7408 7.05001 8.09891 7.03543 8.47642C7.02085 8.85393 7.14926 9.22305 7.395 9.51L8.46 10.575ZM26.46 11.01C26.8535 11.0083 27.2306 10.8521 27.51 10.575L28.575 9.51C28.732 9.37553 28.8596 9.21005 28.9496 9.02396C29.0396 8.83786 29.0902 8.63516 29.0982 8.42858C29.1062 8.222 29.0714 8.016 28.996 7.82352C28.9205 7.63103 28.8062 7.45621 28.66 7.31002C28.5138 7.16384 28.339 7.04946 28.1465 6.97404C27.954 6.89863 27.748 6.86382 27.5414 6.8718C27.3348 6.87978 27.1321 6.93038 26.946 7.02041C26.7599 7.11045 26.5945 7.23798 26.46 7.395L25.5 8.46C25.2206 8.74104 25.0638 9.12122 25.0638 9.5175C25.0638 9.91378 25.2206 10.294 25.5 10.575C25.7644 10.838 26.1174 10.9931 26.49 11.01H26.46ZM31.5 16.5H30C29.6022 16.5 29.2206 16.658 28.9393 16.9393C28.658 17.2206 28.5 17.6022 28.5 18C28.5 18.3978 28.658 18.7794 28.9393 19.0607C29.2206 19.342 29.6022 19.5 30 19.5H31.5C31.8978 19.5 32.2794 19.342 32.5607 19.0607C32.842 18.7794 33 18.3978 33 18C33 17.6022 32.842 17.2206 32.5607 16.9393C32.2794 16.658 31.8978 16.5 31.5 16.5ZM18 28.5C17.6022 28.5 17.2206 28.658 16.9393 28.9393C16.658 29.2206 16.5 29.6022 16.5 30V31.5C16.5 31.8978 16.658 32.2794 16.9393 32.5607C17.2206 32.842 17.6022 33 18 33C18.3978 33 18.7794 32.842 19.0607 32.5607C19.342 32.2794 19.5 31.8978 19.5 31.5V30C19.5 29.6022 19.342 29.2206 19.0607 28.9393C18.7794 28.658 18.3978 28.5 18 28.5ZM27.54 25.5C27.255 25.3415 26.9261 25.2802 26.6032 25.3253C26.2802 25.3705 25.9808 25.5196 25.7502 25.7502C25.5196 25.9808 25.3705 26.2802 25.3253 26.6032C25.2802 26.9261 25.3415 27.255 25.5 27.54L26.565 28.605C26.846 28.8844 27.2262 29.0412 27.6225 29.0412C28.0188 29.0412 28.399 28.8844 28.68 28.605C28.9594 28.324 29.1162 27.9438 29.1162 27.5475C29.1162 27.1512 28.9594 26.771 28.68 26.49L27.54 25.5ZM18 9.75C16.3683 9.75 14.7733 10.2339 13.4165 11.1404C12.0598 12.0469 11.0024 13.3354 10.378 14.8429C9.75357 16.3504 9.59019 18.0092 9.90852 19.6095C10.2268 21.2098 11.0126 22.6798 12.1664 23.8336C13.3202 24.9874 14.7902 25.7732 16.3905 26.0915C17.9908 26.4098 19.6496 26.2464 21.1571 25.622C22.6646 24.9976 23.9531 23.9402 24.8596 22.5835C25.7661 21.2267 26.25 19.6317 26.25 18C26.246 15.8132 25.3756 13.7171 23.8293 12.1707C22.2829 10.6244 20.1868 9.75397 18 9.75ZM18 23.25C16.9616 23.25 15.9466 22.9421 15.0833 22.3652C14.2199 21.7883 13.547 20.9684 13.1496 20.0091C12.7523 19.0498 12.6483 17.9942 12.8509 16.9758C13.0534 15.9574 13.5535 15.0219 14.2877 14.2877C15.0219 13.5535 15.9574 13.0534 16.9758 12.8509C17.9942 12.6483 19.0498 12.7523 20.0091 13.1496C20.9684 13.547 21.7883 14.2199 22.3652 15.0833C22.9421 15.9466 23.25 16.9616 23.25 18C23.25 19.3924 22.6969 20.7277 21.7123 21.7123C20.7277 22.6969 19.3924 23.25 18 23.25Z" fill="#D2FFEA"/>
</svg>
